# xmcd CD Database Entry
#
# Track frame offsets:
# 150
# 18905
# 40817
# 58869
# 74238
# 93891
# 116310
# 132501
# 147071
# 164412
# 194718
# 203870
# 213029
# 221332
# 231851
# 246968
# 260614
# 266207
# 278331
#
# Disc length: 3909 seconds
#
# Revision: 2
# Processed by: cddbd v1.4PL0 Copyright (c) Steve Scherf et al.
# Submitted via: tcd 2.0b
#
DISCID=230f4313
DTITLE=Vincent Gallo - When and Buffalo 66
DYEAR=1900
DGENRE=
TTITLE0=I Wrote This Song For The Girl Paris Hilton
TTITLE1=When
TTITLE2=My Beautiful White Dog
TTITLE3=Was
TTITLE4=Honey Bunny
TTITLE5=Laura
TTITLE6=Cracks
TTITLE7=Apple Girl
TTITLE8=Yes I'm Lonely
TTITLE9=A Picture Of Her
TTITLE10=Lonely Boy
TTITLE11=A Falling Down Billy Brown
TTITLE12=Fools Rush In
TTITLE13=Drowning in Brown
TTITLE14=A Somewhere Place
TTITLE15=A Wet Cleaner
TTITLE16=Sixteen Seconds Happy
TTITLE17=With Smiles and Smiles and Smiles
TTITLE18=A Cold and Grey Summer Day
EXTD=
EXTT0=
EXTT1=
EXTT2=
EXTT3=
EXTT4=
EXTT5=
EXTT6=
EXTT7=
EXTT8=
EXTT9=
EXTT10=
EXTT11=
EXTT12=
EXTT13=
EXTT14=
EXTT15=
EXTT16=
EXTT17=
EXTT18=
PLAYORDER=
